#!OML:ASF H:\Dans Jumps\Project 1\Capture day 1\Session 1\subject.ASF
:FULLY-SPECIFIED
:DEGREES
263
root 0.110532 12.6289 -16.3186 28.3154 0.140953 -2.5272
lowerback 45.8512 2.45938 -2.62924
upperback 1.795 2.42308 3.28871
thorax -20.1018 1.30821 3.86993
lowerneck -24.0794 0.0774036 -1.24501
upperneck -2.31248 0.477384 -0.660718
head 2.96337 0.204589 0.031879
rclavicle 1.64991e-014 2.96189e-014
rhumerus -43.9135 -22.1756 -61.5239
rradius 19.2677
rwrist 38.3822
rhand -17.5291 -22.4275
rfingers 7.12502
rthumb 8.72481 -52.2272
lclavicle 1.64991e-014 2.96189e-014
lhumerus -46.1527 18.2041 66.3058
lradius 6.95048
lwrist -12.9364
lhand -25.7947 -6.82121
lfingers 7.12502
lthumb 0.744033 23.1572
rfemur -90.0932 -2.32829 24.6168
rtibia 97.8141
rfoot -34.6787 -15.6651
rtoes 3.69657
lfemur -90.1737 9.18099 -21.6752
ltibia 97.957
lfoot -31.3778 19.1005
ltoes -7.88422
264
root 0.106682 12.6389 -16.2465 28.5709 0.199664 -2.48114
lowerback 45.4397 2.41852 -2.63783
upperback 1.82468 2.37916 3.29474
thorax -19.9281 1.29259 3.9075
lowerneck -24.0355 0.10989 -1.20449
upperneck -2.42543 0.509355 -0.695639
head 2.92235 0.219444 0.0172882
rclavicle 1.33186e-014 3.02153e-014
rhumerus -43.0546 -22.6779 -61.7295
rradius 19.2174
rwrist 38.0032
rhand -17.8714 -22.5567
rfingers 7.12502
rthumb 8.39443 -52.3699
lclavicle 1.33186e-014 3.02153e-014
lhumerus -45.2191 18.9153 66.3428
lradius 6.54773
lwrist -13.8302
lhand -25.6607 -6.75264
lfingers 7.12502
lthumb 0.873477 23.2253
rfemur -90.0023 -2.38567 24.6186
rtibia 97.8407
rfoot -34.8619 -15.8365
rtoes 3.55097
lfemur -90.0563 9.10661 -21.645
ltibia 97.9516
lfoot -31.5696 19.278
ltoes -8.05683
265
root 0.102703 12.6543 -16.1712 28.9008 0.294984 -2.42404
lowerback 44.8517 2.34491 -2.62221
upperback 1.83377 2.31159 3.29956
thorax -19.719 1.26688 3.94487
lowerneck -24.0099 0.128149 -1.1933
upperneck -2.47559 0.529554 -0.693552
head 2.90323 0.230098 0.0179463
rclavicle -1.98785e-015 1.43125e-014
rhumerus -42.1218 -23.1374 -62.0299
rradius 19.2264
rwrist 37.5588
rhand -18.4086 -22.7457
rfingers 7.12502
rthumb 7.87594 -52.579
lclavicle -1.98785e-015 1.43125e-014
lhumerus -44.2003 19.6484 66.4105
lradius 6.22679
lwrist -14.5949
lhand -25.5724 -6.67102
lfingers 7.12502
lthumb 0.958744 23.3066
rfemur -89.9439 -2.44395 24.6099
rtibia 97.8138
rfoot -35.0087 -16.0495
rtoes 3.26866
lfemur -89.9744 8.97173 -21.5968
ltibia 97.8838
lfoot -31.7 19.4891
ltoes -8.37892
266
root 0.0994262 12.6761 -16.0904 29.2583 0.390405 -2.36409
lowerback 44.1299 2.25778 -2.5933
upperback 1.83359 2.23411 3.29359
thorax -19.4717 1.23593 3.96857
lowerneck -24.0025 0.131594 -1.19619
upperneck -2.47796 0.533068 -0.65906
head 2.90134 0.233856 0.0295589
rclavicle -3.57812e-015 2.14687e-014
rhumerus -41.0986 -23.5425 -62.4385
rradius 19.282
rwrist 37.2443
rhand -19.0899 -22.9562
rfingers 7.12502
rthumb 7.21833 -52.813
lclavicle -3.57812e-015 2.14687e-014
lhumerus -43.0844 20.3897 66.5205
lradius 6.00928
lwrist -15.1465
lhand -25.5255 -6.60464
lfingers 7.12502
lthumb 1.00399 23.3727
rfemur -89.851 -2.48612 24.5792
rtibia 97.7211
rfoot -35.1294 -16.2862
rtoes 2.83326
lfemur -89.8543 8.80122 -21.5253
ltibia 97.7483
lfoot -31.7878 19.7434
ltoes -8.86102
267
root 0.09714 12.706 -16.003 29.6109 0.459293 -2.30364
lowerback 43.3139 2.1732 -2.56752
upperback 1.82282 2.15609 3.27203
thorax -19.1997 1.20431 3.97642
lowerneck -24.0114 0.119016 -1.21341
upperneck -2.43029 0.518134 -0.588559
head 2.91715 0.230049 0.0531514
rclavicle -1.70955e-014 -2.92213e-014
rhumerus -39.9902 -23.882 -62.9467
rradius 19.3801
rwrist 37.2213
rhand -19.7728 -23.1849
rfingers 7.12502
rthumb 6.55914 -53.0634
lclavicle -1.70955e-014 -2.92213e-014
lhumerus -41.8916 21.1282 66.6677
lradius 5.92637
lwrist -15.4422
lhand -25.6411 -6.61012
lfingers 7.12502
lthumb 0.892367 23.3678
rfemur -89.671 -2.50287 24.5178
rtibia 97.5481
rfoot -35.2297 -16.5451
rtoes 2.19794
lfemur -89.6371 8.61713 -21.4336
ltibia 97.5353
lfoot -31.8566 20.0352
ltoes -9.4975
268
root 0.0959698 12.7461 -15.9079 29.9107 0.483242 -2.24664
lowerback 42.4616 2.10626 -2.55857
upperback 1.80699 2.0886 3.23577
thorax -18.9156 1.17716 3.97067
lowerneck -24.0454 0.0988313 -1.21931
upperneck -2.33352 0.4905 -0.514349
head 2.95175 0.219658 0.0750316
rclavicle 3.77691e-015 -2.64384e-014
rhumerus -38.7825 -24.1184 -63.5657
rradius 19.5196
rwrist 37.4613
rhand -20.3276 -23.4189
rfingers 7.12502
rthumb 6.02352 -53.3133
lclavicle 3.77691e-015 -2.64384e-014
lhumerus -40.6198 21.8631 66.8603
lradius 5.98256
lwrist -15.4771
lhand -25.8653 -6.69759
lfingers 7.12502
lthumb 0.675881 23.2811
rfemur -89.3329 -2.48873 24.4197
rtibia 97.2787
rfoot -35.3245 -16.8161
rtoes 1.35679
lfemur -89.2467 8.43838 -21.3182
ltibia 97.2324
lfoot -31.928 20.3568
ltoes -10.273
269
root 0.0958694 12.7958 -15.8055 30.1584 0.452584 -2.19158
lowerback 41.5755 2.06536 -2.57973
upperback 1.78599 2.0371 3.18669
thorax -18.6206 1.15787 3.95815
lowerneck -24.0978 0.0788424 -1.20405
upperneck -2.19663 0.458657 -0.457931
head 3.00154 0.205832 0.0876241
rclavicle -2.18663e-015 -1.74931e-014
rhumerus -37.4674 -24.1945 -64.312
rradius 19.7172
rwrist 37.7836
rhand -20.684 -23.6375
rfingers 7.12502
rthumb 5.67944 -53.5414
lclavicle -2.18663e-015 -1.74931e-014
lhumerus -39.2727 22.59 67.1033
lradius 6.19255
lwrist -15.2684
lhand -26.4536 -6.96364
lfingers 7.12502
lthumb 0.107687 23.0161
rfemur -88.8435 -2.44276 24.2822
rtibia 96.9136
rfoot -35.4176 -17.0846
rtoes 0.346798
lfemur -88.6893 8.27468 -21.1902
ltibia 96.8407
lfoot -32.0031 20.6991
ltoes -11.1653
270
root 0.0971171 12.8565 -15.6957 30.3307 0.36686 -2.14621
lowerback 40.6827 2.0531 -2.63026
upperback 1.76806 2.00686 3.13083
thorax -18.3143 1.14846 3.943
lowerneck -24.1655 0.0640864 -1.17262
upperneck -2.0379 0.430538 -0.420819
head 3.06038 0.192648 0.0919295
rclavicle -1.98785e-016 2.14687e-014
rhumerus -36.0299 -24.0337 -65.2156
rradius 20.0091
rwrist 37.8707
rhand -20.836 -23.8398
rfingers 7.12502
rthumb 5.53269 -53.7475
lclavicle -1.98785e-016 2.14687e-014
lhumerus -37.8509 23.3127 67.403
lradius 6.56567
lwrist -14.8798
lhand -27.2714 -7.40867
lfingers 7.12502
lthumb -0.682186 22.57
rfemur -88.1649 -2.36442 24.1105
rtibia 96.4419
rfoot -35.5257 -17.3398
rtoes -0.768932
lfemur -87.9307 8.13019 -21.0446
ltibia 96.3525
lfoot -32.0852 21.064
ltoes -12.1491
271
root 0.0989308 12.9257 -15.5815 30.4822 0.250637 -2.0969
lowerback 39.7332 2.05882 -2.70801
upperback 1.73946 1.98946 3.07345
thorax -17.9947 1.14635 3.93544
lowerneck -24.2561 0.0543435 -1.13023
upperneck -1.83425 0.408041 -0.411089
head 3.13649 0.180455 0.0864091
rclavicle 8.54774e-015 2.96189e-014
rhumerus -34.4968 -23.5665 -66.2749
rradius 20.4429
rwrist 37.4074
rhand -20.8324 -24.0089
rfingers 7.12502
rthumb 5.53613 -53.9166
lclavicle 8.54774e-015 2.96189e-014
lhumerus -36.382 24.0127 67.7501
lradius 7.12285
lwrist -14.3528
lhand -28.1566 -8.01789
lfingers 7.12502
lthumb -1.53715 21.9563
rfemur -87.392 -2.26979 23.9113
rtibia 95.8772
rfoot -35.6311 -17.5681
rtoes -1.89087
lfemur -87.0706 7.98839 -20.9007
ltibia 95.7752
lfoot -32.1337 21.4304
ltoes -13.1613
272
root 0.10105 13.0028 -15.4643 30.6185 0.14007 -2.0444
lowerback 38.7309 2.06491 -2.78765
upperback 1.6988 1.97637 3.02206
thorax -17.6626 1.14648 3.93501
lowerneck -24.3663 0.0437795 -1.0987
upperneck -1.59018 0.388114 -0.403943
head 3.22799 0.169261 0.0820307
rclavicle 3.77691e-015 2.48481e-014
rhumerus -32.9019 -22.7637 -67.4637
rradius 21.0632
rwrist 36.24
rhand -20.7868 -24.1623
rfingers 7.12502
rthumb 5.58017 -54.0688
lclavicle 3.77691e-015 2.48481e-014
lhumerus -34.878 24.6827 68.137
lradius 7.86769
lwrist -13.7194
lhand -28.9833 -8.86052
lfingers 7.12502
lthumb -2.33558 21.1064
rfemur -86.5391 -2.18092 23.705
rtibia 95.2212
rfoot -35.7245 -17.7819
rtoes -2.9739
lfemur -86.1337 7.82953 -20.751
ltibia 95.1097
lfoot -32.1391 21.7879
ltoes -14.1785
273
root 0.103509 13.0889 -15.3449 30.7315 0.0452913 -1.99202
lowerback 37.6212 2.06041 -2.85139
upperback 1.71447 1.96336 2.97447
thorax -17.3293 1.14566 3.9261
lowerneck -24.5002 0.0248527 -1.09167
upperneck -1.28275 0.363345 -0.373996
head 3.3426 0.156785 0.0882766
rclavicle -5.56597e-015 -1.80894e-014
rhumerus -31.3101 -21.6737 -68.7183
rradius 21.9029
rwrist 34.4236
rhand -20.7754 -24.3344
rfingers 7.12502
rthumb 5.59116 -54.2406
lclavicle -5.56597e-015 -1.80894e-014
lhumerus -33.3751 25.2969 68.5303
lradius 8.837
lwrist -12.9695
lhand -29.4507 -9.73221
lfingers 7.12502
lthumb -2.78699 20.2293
rfemur -85.5938 -2.10402 23.503
rtibia 94.4654
rfoot -35.7951 -17.9916
rtoes -4.00611
lfemur -85.1146 7.65741 -20.5979
ltibia 94.3493
lfoot -32.0955 22.1276
ltoes -15.1739
274
root 0.105999 13.1831 -15.2242 30.8193 -0.0143392 -1.9431
lowerback 36.5668 2.04308 -2.87735
upperback 1.63405 1.9495 2.92703
thorax -17.0072 1.14239 3.90457
lowerneck -24.658 -0.00705937 -1.11273
upperneck -0.9047 0.327918 -0.310912
head 3.48278 0.140787 0.108429
rclavicle 1.78906e-015 -1.43125e-014
rhumerus -29.782 -20.4149 -69.936
rradius 22.9539
rwrist 32.2509
rhand -20.926 -24.4978
rfingers 7.12502
rthumb 5.44575 -54.4079
lclavicle 1.78906e-015 -1.43125e-014
lhumerus -31.9072 25.8333 68.9046
lradius 10.0545
lwrist -12.0599
lhand -29.3612 -10.5118
lfingers 7.12502
lthumb -2.7005 19.4509
rfemur -84.5613 -2.04777 23.3195
rtibia 93.6104
rfoot -35.8322 -18.1992
rtoes -4.96946
lfemur -84.0277 7.47163 -20.4359
ltibia 93.496
lfoot -31.972 22.4504
ltoes -16.1992
275
root 0.108088 13.2867 -15.1017 30.8665 -0.0322279 -1.89293
lowerback 35.5236 2.00757 -2.86541
upperback 1.52361 1.92842 2.87826
thorax -16.7135 1.13406 3.86528
lowerneck -24.8322 -0.0560121 -1.16483
upperneck -0.443118 0.275862 -0.197499
head 3.65184 0.119471 0.147823
rclavicle 2.38542e-015 7.7526e-015
rhumerus -28.358 -19.0888 -71.0552
rradius 24.2004
rwrist 30.0501
rhand -21.199 -24.6642
rfingers 7.12502
rthumb 5.18217 -54.5808
lclavicle 2.38542e-015 7.7526e-015
lhumerus -29.3178 21.5591 72.1742
lradius 11.595
lwrist -5.62699
lhand -29.479 -10.6415
lfingers 7.12502
lthumb -2.81435 19.3197
rfemur -83.4154 -2.01738 23.1546
rtibia 92.6478
rfoot -35.8401 -18.3995
rtoes -5.83676
lfemur -82.845 7.27358 -20.2618
ltibia 92.5412
lfoot -31.792 22.7283
ltoes -17.2431
276
root 0.109309 13.4 -14.9775 30.859 -0.00478745 -1.84379
lowerback 34.525 1.95365 -2.8174
upperback 1.37694 1.89711 2.82892
thorax -16.4696 1.11983 3.81065
lowerneck -25.0626 -0.11872 -1.24151
upperneck 0.155193 0.20976 -0.0324931
head 3.85251 0.0943018 0.204946
rclavicle 5.76476e-015 2.38542e-015
rhumerus -27.0566 -17.7512 -72.0452
rradius 25.612
rwrist 28.0715
rhand -21.5296 -24.8322
rfingers 7.12502
rthumb 4.86304 -54.7564
lclavicle 5.76476e-015 2.38542e-015
lhumerus -27.2058 17.0298 74.9199
lradius 13.5624
lwrist 0.905916
lhand -29.2195 -10.3338
lfingers 7.12502
lthumb -2.56374 19.6305
rfemur -82.135 -2.01106 23.0124
rtibia 91.5711
rfoot -35.8215 -18.581
rtoes -6.60396
lfemur -81.5466 7.06617 -20.0608
ltibia 91.4769
lfoot -31.5403 22.9566
ltoes -18.3587
